<svg xmlns="http://www.w3.org/2000/svg" width="544.2" height="544.2" viewBox="0 0 544.2 544.2"><path d="M272.1.8C2.1.8 0 122.6 0 272.9S2.1 545 272.1 545s272.1-121.8 272.1-272.1S542.1.8 272.1.8z" fill="#2867b7"/><g fill="#fff"><path d="M406.3 165.2v215.4H269.5V165.2h136.8m5.5-27.1H264.1c-11.9 0-21.7 9.8-21.7 21.7V386c0 11.9 9.8 21.7 21.7 21.7h147.7c11.9 0 21.7-9.8 21.7-21.7V159.8c-.1-12-9.8-21.7-21.7-21.7zM212 386c0 11.9-9.8 21.7-21.7 21.7h-57.8c-11.9 0-21.7-9.8-21.7-21.7V159.8c0-11.9 9.8-21.7 21.7-21.7h57.8c11.9 0 21.7 9.8 21.7 21.7V386z"/></g></svg>